<?xml version="1.0" encoding="UTF-8" standalone="no"?>
<svg
   viewBox="0 0 301.79614 135.446"
   x="0px"
   y="0px"
   version="1.1"
   id="svg62"
   sodipodi:docname="logo.svg"
   inkscape:version="1.3.2 (091e20e, 2023-11-25, custom)"
   width="301.79614"
   height="135.446"
   xmlns:inkscape="http://www.inkscape.org/namespaces/inkscape"
   xmlns:sodipodi="http://sodipodi.sourceforge.net/DTD/sodipodi-0.dtd"
   xmlns="http://www.w3.org/2000/svg"
   xmlns:svg="http://www.w3.org/2000/svg">
  <defs id="defs62" />
  <style>
    /* 默认浅色模式样式 */
    .adaptive-path {
      fill: #000000;
      stroke: none;
    }
    
    /* 深色模式样式 */
    @media (prefers-color-scheme: dark) {
      .adaptive-path {
        fill: #ffffff;
      }
    }
    
    /* 也可以通过CSS变量实现更灵活的控制 */
    :root {
      --logo-color: #000000;
    }
    
    @media (prefers-color-scheme: dark) {
      :root {
        --logo-color: #ffffff;
      }
    }
    
    .variable-path {
      fill: var(--logo-color);
      stroke: none;
    }
  </style>
  <sodipodi:namedview
     id="namedview62"
     pagecolor="#ffffff"
     bordercolor="#000000"
     borderopacity="0.25"
     inkscape:showpageshadow="2"
     inkscape:pageopacity="0.0"
     inkscape:pagecheckerboard="0"
     inkscape:deskcolor="#d1d1d1"
     inkscape:zoom="1.9078125"
     inkscape:cx="149.90991"
     inkscape:cy="74.168714"
     inkscape:window-width="2560"
     inkscape:window-height="1494"
     inkscape:window-x="-11"
     inkscape:window-y="-11"
     inkscape:window-maximized="1"
     inkscape:current-layer="g61" />
  <g
     id="g61"
     transform="translate(-105.90273,-246.04401)">
    <path
       class="adaptive-path"
       d="m 407.54,367.59 c -0.51,-4.16 -7,-1.4 -9.66,-3 -5.44,-4.69 -11.07,-8.34 -18.71,-8.16 9.3,-6.73 11,-18.12 10.46,-28.85 -0.17,-1.31 -0.36,-3.51 -1.93,-3.83 -0.77,0 -0.81,0.75 -0.74,1.38 3,14.93 -4,31.13 -19.63,35.07 a 67.71,67.71 0 0 1 -30.23,3.1 c -12.36,-1 -33.82,-2 -26.77,-20.09 4.47,-8.34 15.75,-7.76 23.71,-5.77 1.38,0.26 2.87,0.47 3.76,1.86 3.52,0.61 6.82,2.44 10.36,3.51 11.92,1.37 34.37,-2.36 34.9,-17.47 -0.73,-2.33 -2.41,-0.69 -2.06,1.07 -2.87,14.32 -30.25,18.17 -40.94,10.78 -6.4,-4.09 -1.11,-15.75 3.18,-19.92 a 1.71,1.71 0 0 0 0.13,-1.58 c -2.56,-2.35 -4.88,5.46 -6.28,7.07 -2.23,3.9 -2.18,8.28 -1.69,12.65 -9.66,-2.69 -25.27,-2.48 -27.92,9.74 -1.09,6 -0.29,13.24 6,15.81 6.16,2.75 13.09,3.12 19.69,4.08 29.77,6.9 45.41,-16.44 61.34,-0.18 1.43,1.35 7.22,5.54 8.51,3.4 0.5,-1.29 1.31,-0.74 2.41,-0.5 -14.28,8.4 -32.45,5.77 -48.35,4.29 -1.75,0.24 -5.23,-2 -6,0.22 -0.09,0.87 0.65,1.09 1.36,1.21 a 133.52,133.52 0 0 0 44.15,0.71 c -10.06,6.74 -23,3.43 -34.24,3.6 a 535.89,535.89 0 0 1 -62.22,0.76 c -16.55,1 -33.16,0.7 -49.68,0.67 a 20,20 0 0 1 -10.75,-1.61 c -5.31,-0.19 -9,-5.51 -12.71,-8.94 3.55,-0.37 7.1,3.42 10.34,1.8 -1.53,-3 -6.16,-2.65 -9.09,-4.23 4,-1.1 15.31,-8 17.44,-2.9 a 3.58,3.58 0 0 0 4.09,1.62 c 8.81,-2.48 17.47,-7 26.82,-5.26 3.23,1.21 6.69,2 9.79,3.52 2.81,2.27 5.76,3.9 9.45,3.36 4.8,0.08 6.58,-3.16 7.15,-6.72 0.32,-2 -0.38,-3.29 -2.13,-3.77 -4.36,-1.19 -7.87,-3.72 -11.21,-6.69 5.09,-3.3 12,-7.39 12.75,-13.88 -1.16,-1 -2.14,0.44 -2.63,1.35 -2.59,6.14 -12.8,13.28 -19.31,13.22 -1.62,0.13 -11.05,-3.85 -8.67,0.09 4.39,1.16 9.7,3.53 14.08,1.23 3.75,-1.4 8.72,6.21 13.82,6.59 a 1.84,1.84 0 0 1 1.1,1.19 c 0.51,5.12 -5.82,6.44 -9.59,4.63 -2.26,-0.87 -3.24,-8.26 -5.57,-3.35 -7.5,-2.62 -15.66,-5.21 -23.3,-1.64 -7.88,-2.9 -16.71,-7.16 -15.37,-17.11 0.16,-1.39 -0.33,-2.46 -1.12,-2.36 -1.26,0.15 -1.23,1.18 -1.18,2.09 0.15,5.22 0.94,10.13 5.23,13.78 l -4.76,4.28 c -7.8,-1.26 -15.3,5.27 -22.84,5.85 -2.31,0.93 0.49,2.46 1.81,2.63 l -0.26,0.24 c 2.55,4.7 8,6.9 11.44,10.66 7,4.59 16.4,1.33 24.41,2.6 22.32,-0.14 44.65,-0.8 67,-0.28 15.08,0.16 30.34,-1.85 45.31,-0.62 10.79,0.43 24.58,-0.15 31.81,-9.13 1.56,-1.06 4.63,-1.3 3.74,-3.87 z m -158.43,-9 c 1.54,-0.86 3,-2.11 5,-1 1.35,0.74 2.81,1.27 4.22,1.9 V 360 l -9.67,2.77 c -0.37,-1.6 -1.39,-3.09 0.45,-4.14 z"
       id="path2" />
    <path
       class="adaptive-path"
       d="m 172.71,273.23 c 0.31,-1.51 -0.64,-1.94 -1.95,-2.07 0.48,-1 1.57,-1.93 0.47,-2.8 -1.36,-1 -6,5.13 -4.24,6.4 1.65,-0.36 1.9,-1.5 2.94,-3 l 3.32,10.86 c -1.94,0.49 -8,-1.22 -8.21,1.17 1.67,2.18 5.43,0.48 8,1 -0.68,4.73 0.71,9.38 -1.39,13.92 -2.07,-2.34 -4.34,-5.65 -7.63,-5.64 a 2.29,2.29 0 0 0 1.55,2.72 c 2,1.67 5.57,4.11 4.84,7 -1.89,4 -3,7.66 -5.83,11.24 -0.6,-1.92 -1.62,-11.86 -4,-7.32 0.13,3.38 3.81,8.8 0.49,11.24 -3,1.31 -5.57,3.52 -9.06,2.94 -0.1,-2.51 2.35,-7.77 0.7,-9.07 -3.14,0.38 -1.9,6.57 -2.87,9.09 a 14.72,14.72 0 0 1 -10.25,-4.12 c 0.6,-1.93 4.29,-5.22 2.7,-6.62 -2.36,0 -2.78,3.36 -4.36,4.81 -3.76,-2.77 -5.14,-6.71 -6.93,-10.48 1.4,-0.65 7.66,-2.08 4.34,-3.66 -2,0.08 -3.24,1.54 -5.52,1 -0.66,-1.78 -0.37,-14.79 -3.78,-10.15 0.53,3.31 1.08,6.68 1.61,10.15 -2,0.71 -4.07,0.56 -6.36,0.73 -1.15,-4.73 -2.52,-9.32 -2.09,-14.31 2.08,-0.68 6.1,1.08 7,-0.93 -0.92,-2.47 -5.08,-1 -7.29,-1.37 -0.78,-5.52 1,-10.4 1.79,-15.62 2.41,0.31 4.68,-0.38 7,0.7 0.08,1.33 -0.52,3.6 1.48,3.4 a 3.22,3.22 0 0 1 0.32,-0.32 c 0.47,-1.32 -0.09,-2.92 1.19,-4.19 2.05,1 3.63,3.58 6.07,3.16 0.22,-2.87 -3.72,-3.71 -5.38,-5.47 0.47,-3.3 3.86,-9.2 6.14,-10.76 A 11.39,11.39 0 0 1 141,265 c 0.12,0.73 0.48,1.44 1.3,1.18 2.33,-3.26 -1,-8.45 -3.33,-11.17 2,-3.75 5.7,-5 9,-6.74 a 22.21,22.21 0 0 1 3.75,10.73 c 4.43,2.8 0.12,-9.37 -1.1,-10.65 4.48,-0.32 6.31,2.66 9.53,5 0.72,2.27 -1,8.19 1.68,8.85 1.79,-0.73 0.4,-4 0.9,-5.64 2.37,3.08 4.86,5.86 6.12,9.41 0.33,0.78 0.83,2.31 1.91,1.66 1.89,-2 -5.6,-13.76 -8.09,-13.39 -0.32,-2.77 -2.83,-3.88 -4.75,-5.5 -4.12,-3.81 -9,-2.69 -13.92,-1.95 -7.38,-1.51 -12.88,3.59 -18.1,8 0,5.1 -5.68,7.94 -6.64,12.83 -4.58,15.76 -4,34.64 7.2,47.48 a 11.71,11.71 0 0 0 -1.39,2.12 c 6.49,0.64 7.26,7.65 14.37,6.81 10.18,-0.35 22.44,0.34 28.06,-10.09 a 55.29,55.29 0 0 0 8,-27.71 c -1,-1 0,-1.85 0.18,-2.34 -1.04,-3.75 -2.07,-6.99 -2.97,-10.66 z m -31.93,-23.52 c -3.65,3.5 -5.39,5.47 -10.63,4.71 2.85,-3.56 7.65,-5.77 10.63,-4.71 z m -13,7.7 c 1.41,-1.82 4.1,-0.57 6,-0.72 l -5.78,11.82 -6.8,-0.42 c 2.12,-3.96 4.26,-7.03 6.63,-10.68 z m -0.44,55.26 c -1.88,-2.73 -3.64,-4.73 -5.26,-7.77 l 6.25,-0.64 c 2,3.74 3.34,7.89 6.5,11.08 -4.59,1.42 -5.03,1.11 -7.44,-2.67 z m 5,5.56 c 4.19,-1.33 6.18,0.72 9.43,3 -3.93,1.46 -7.04,0.5 -9.39,-3 z"
       id="path3" />
    <path
       class="adaptive-path"
       d="m 165.17,364.48 c 0,-3 -8,0.61 -10.62,-1.09 -0.26,-2 0.63,-4.4 -2.09,-4.57 -4.55,-0.86 -9.06,0 -13.59,0.21 -2.55,0 -1.63,3 -1.51,4.79 a 18.3,18.3 0 0 1 -5.64,-0.37 c 0,-12.11 -0.38,-24.06 -0.52,-36.13 l -3,-0.89 c -0.46,-2 1.08,-6.25 -0.89,-7.05 -2.45,1.06 -0.9,4.9 -1.49,7 h -3.95 c -0.95,-3.62 0.71,-14.13 -1.79,-15.71 -2.62,1.1 0.09,12.48 -0.38,15.66 -2.28,0.56 -2.95,1.28 -2.81,2.93 1,10.7 1.68,21.42 2.2,32.15 4.67,12.35 -0.2,-30.81 0.18,-32.54 H 129 c 0.1,11.55 1.19,22.94 0.24,34.53 -3.29,1.48 -17.57,-1 -17.45,2.09 0,3.67 -1.53,11.9 4.47,10.07 11.26,-0.31 22.61,-1 33.79,0.4 a 30.37,30.37 0 0 0 14.74,-1.21 c 3.21,-1.44 -1.19,-7.33 0.38,-10.27 z m -13,-1.17 c -4.3,0.23 -8.4,1.79 -12.66,0.34 -0.06,-0.7 -0.13,-1.43 -0.23,-2.39 3.02,0.32 14.05,-3.09 12.89,2.05 z m -3.32,10.36 c -11.34,-1.51 -23,-0.1 -34.45,-0.27 a 14.27,14.27 0 0 1 -0.4,-7 c 16.25,-0.4 32.31,-0.11 48.55,-0.63 0.41,2.52 0.78,4.81 1.15,7 a 28.78,28.78 0 0 1 -14.85,0.9 z"
       id="path7" />
    <path
       class="adaptive-path"
       d="m 256.11,311.85 c -1.23,-4.25 -5.14,-4.85 -8.67,-6.06 3.26,0 6.6,-1.09 9.54,1 -0.08,2.3 0.27,2.61 2.36,2.06 8.76,-2.73 18,-3.1 26.93,-4.06 0.09,-0.61 0.18,-1.25 0.28,-1.88 1.53,-0.25 5.23,-3.3 5,-0.16 -8.72,1.77 7.68,4.7 6.94,12.49 0.46,5.22 3.54,9.93 2.79,15.31 -0.26,2 2.56,2 2.18,0 -0.37,-5.94 -2.37,-21.16 -7.74,-24 a 4,4 0 0 1 -1.92,-4.19 c 0.73,-3.75 -2.08,-3.69 -4.84,-2.74 -8,5 -17.54,3.43 -26.27,6.23 a 3.8,3.8 0 0 1 -3.2,-0.42 c -1.93,-1.88 -15.69,-4.31 -14.21,0.34 -2.47,10.65 3.34,14.62 10.83,6.08 z m -8.89,-3.63 c 2.33,0.49 4.56,0.9 6.15,2.95 -3.26,5.32 -7.87,2.72 -6.15,-2.95 z"
       id="path10" />
    <path
       class="adaptive-path"
       d="m 322.59,297.29 c 11.25,-2.73 24,-6.39 35.25,-2.42 1.27,0.46 4.29,2.83 4.56,0.29 -11.62,-8.79 -39.27,-1.74 -51.43,4.6 -2.38,2.55 -14.37,4.41 -13.52,6.78 8.62,0.57 16.55,-7.39 25.14,-9.25 z"
       id="path14" />
    <path
       class="adaptive-path"
       d="m 277.29,374.83 c -12,1.42 -23.89,-0.5 -35.31,-4.28 -0.86,-0.23 -2.1,-1 -2.46,0.46 -0.36,1.46 1,1.42 1.94,1.65 11.25,3.13 21.48,5.55 33.4,4.68 1.63,-0.47 29.83,-3.2 23.58,-6.38 -7,1.04 -14.04,3.19 -21.15,3.87 z"
       id="path15" />
    <path
       class="adaptive-path"
       d="m 161.65,297.49 c -0.22,-4.92 -1.87,-9.8 -6.48,-12.22 -0.62,-0.36 -1.37,-0.53 -1.81,0.2 -0.44,0.73 0.09,1.24 0.71,1.65 5.09,3 6.57,9.82 4.64,15 -5.8,8.81 -19.76,3 -11.41,-6.7 0.46,-0.61 0.79,-1.18 0.12,-1.78 -0.67,-0.6 -1.29,-0.31 -1.76,0.29 -3.23,3.42 -4.18,8.07 -1.31,12 5.65,6.79 18.79,0.42 17.3,-8.44 z"
       id="path22" />
    <path
       class="adaptive-path"
       d="m 164.65,270.91 c -2.18,-14.1 -21.69,-11.81 -20.64,3 -0.13,0.8 0.85,1.45 1.43,1.59 1.78,0.13 -0.65,-5 3,-9.14 5.33,-6.85 15.15,-0.7 13.9,7.17 -1.09,4.34 -6.27,2.95 -9.55,2.86 -4.2,2.9 12.53,5.8 11.86,-5.48 z"
       id="path25" />
    <path
       class="adaptive-path"
       d="m 141,295.5 a 0.94,0.94 0 0 0 -0.12,-1.82 c -8.77,3.32 -14.07,-8.35 -11.32,-15.54 1,-2.71 3.11,-3.14 5.32,-1.23 2.49,2.35 2.11,6 2.93,9.11 4,6 2.13,-17.34 -8.67,-11.53 -6.46,7.83 0.54,26.11 11.86,21.01 z"
       id="path26" />
    <path
       class="adaptive-path"
       d="m 301.92,371.94 c 7.83,1.28 16.5,-2.54 24.73,-1.22 6.06,0.95 12.64,-0.2 18.31,2.41 0.45,0.31 1.46,0 2.11,-0.23 3.28,-4.43 -21.34,-3.58 -24.44,-4.67 v 0.32 c -3.85,0.23 -19.52,0.15 -20.71,3.39 z"
       id="path27" />
    <path
       class="adaptive-path"
       d="m 148.69,290.49 c 5.79,-3.59 3.2,-19.25 -4.5,-12.81 -1.71,1.87 -1.91,4.18 -2,6.54 -0.59,3.51 2.65,9.61 6.5,6.27 z m -4.55,-5.8 c 0.41,-2.05 0.21,-4 1.65,-5.45 1.44,-1.45 2.39,-1.26 3.26,0.56 2.84,4.85 -3.42,14.8 -4.91,4.89 z"
       id="path37" />
    <path
       class="adaptive-path"
       d="m 116.52,295.55 c -0.47,-3.3 -5.66,0.52 -6.7,-2.75 -2,-3.88 -3.72,-13 1.82,-14.46 1.17,-0.32 3.59,0.64 3.65,-1.19 -0.05,-1.23 -1.39,-1.15 -2.36,-1 0,0 0,-0.05 0,-0.07 -6.33,-0.89 -7.21,5.51 -7,10.57 0.01,6.21 4.07,13.4 10.59,8.9 z"
       id="path38" />
    <path
       class="adaptive-path"
       d="m 283.27,337.86 c 5.78,-4.14 6.94,1.84 9,-0.86 0.33,-1.7 -2.32,-1.69 -3.2,-2.68 -3.11,-2.25 2.39,-4.32 0.57,-6.89 -1.82,0.38 -2.21,2.47 -4.13,1.25 -2.9,-2 -3.84,1.11 -0.71,2 4.97,3.84 -5.58,4.77 -1.53,7.18 z"
       id="path44" />
    <path
       class="adaptive-path"
       d="m 246.77,337.9 c 1.36,-0.48 0.32,-1.84 0.07,-2.74 -2.75,-5.7 0.23,-12 -1.11,-17.68 -3.4,1.23 -1.53,7.22 -2.45,10.88 0.61,2.08 0.27,8.96 3.49,9.54 z"
       id="path46" />
    <path
       class="adaptive-path"
       d="m 388.4,321.44 c -1.08,-3.27 -5.14,-13.55 -8.74,-13.37 -0.62,2.77 5.72,8.58 6.33,12.8 0.23,1.36 1.79,2.13 2.41,0.57 z"
       id="path49" />
    <path
       class="adaptive-path"
       d="m 273,326.74 c -2.14,3.47 -4.72,0.57 -7.68,0.61 -0.69,2.77 2.61,2.83 4.46,3.54 a 1.43,1.43 0 0 0 0.08,-0.22 c 2.13,0.35 5.6,-1.63 4.37,-3.95 -0.31,-0.2 -0.88,-0.09 -1.23,0.02 z"
       id="path52" />
    <path
       class="adaptive-path"
       d="M 295.24,327.34 295.12,327 c -5.82,0.42 1.4,4.44 3.78,0.84 0.74,-2.64 -2.42,-1.08 -3.66,-0.5 z"
       id="path54" />
    <path
       class="adaptive-path"
       d="m 374.81,304 c 1.19,-0.45 3.45,-0.27 3.78,-1.71 -0.82,-1.84 -3,-0.37 -4.52,-0.79 -2.77,-0.22 -1.29,2.71 0.74,2.5 z"
       id="path55" />
    <path
       class="adaptive-path"
       d="m 371.2,298.21 h -0.08 v 0.08 z"
       id="path56" />
    <path
       class="adaptive-path"
       d="m 371.12,298.21 c 0.23,-3 -1.95,-1.42 -3.79,-1.42 -0.77,0 -1.37,0.3 -1.34,1.17 0.56,2.17 3.57,0.32 5.13,0.25 z"
       id="path57" />
    <path
       class="adaptive-path"
       d="m 373,298.62 -1.84,-0.33 c -3.94,2.6 1.34,4.71 1.84,0.33 z"
       id="path60" />
    <path
       class="adaptive-path"
       d="m 378,308 c 0.2,0.1 0.71,-0.47 1.42,-1 -2.23,-2.69 -4.63,-0.62 -1.42,1 z"
       id="path61" />
  </g>
</svg>